<mxfile host="app.diagrams.net" agent="Mozilla/5.0 (Windows NT 10.0; Win64; x64) AppleWebKit/537.36 (KHTML, like Gecko) Chrome/131.0.0.0 Safari/537.36" version="26.0.6">
  <diagram id="C5RBs43oDa-KdzZeNtuy" name="Page-1">
    <mxGraphModel dx="657" dy="330" grid="1" gridSize="10" guides="1" tooltips="1" connect="1" arrows="1" fold="1" page="1" pageScale="1" pageWidth="827" pageHeight="1169" math="0" shadow="0">
      <root>
        <mxCell id="WIyWlLk6GJQsqaUBKTNV-0" />
        <mxCell id="WIyWlLk6GJQsqaUBKTNV-1" parent="WIyWlLk6GJQsqaUBKTNV-0" />
        <mxCell id="axCRcWsU4pVJFEmlz38G-201" style="edgeStyle=orthogonalEdgeStyle;rounded=0;orthogonalLoop=1;jettySize=auto;html=1;entryX=0.25;entryY=0;entryDx=0;entryDy=0;" edge="1" parent="WIyWlLk6GJQsqaUBKTNV-1" source="axCRcWsU4pVJFEmlz38G-163" target="axCRcWsU4pVJFEmlz38G-171">
          <mxGeometry relative="1" as="geometry" />
        </mxCell>
        <mxCell id="axCRcWsU4pVJFEmlz38G-202" value="Login" style="edgeLabel;html=1;align=center;verticalAlign=middle;resizable=0;points=[];" vertex="1" connectable="0" parent="axCRcWsU4pVJFEmlz38G-201">
          <mxGeometry x="-0.3969" y="3" relative="1" as="geometry">
            <mxPoint as="offset" />
          </mxGeometry>
        </mxCell>
        <mxCell id="axCRcWsU4pVJFEmlz38G-163" value="User" style="whiteSpace=wrap;strokeWidth=2;" vertex="1" parent="WIyWlLk6GJQsqaUBKTNV-1">
          <mxGeometry x="774" y="20" width="92" height="54" as="geometry" />
        </mxCell>
        <mxCell id="axCRcWsU4pVJFEmlz38G-164" value="JobSeeker" style="whiteSpace=wrap;strokeWidth=2;" vertex="1" parent="WIyWlLk6GJQsqaUBKTNV-1">
          <mxGeometry x="753" y="147" width="133" height="54" as="geometry" />
        </mxCell>
        <mxCell id="axCRcWsU4pVJFEmlz38G-165" value="Database" style="whiteSpace=wrap;strokeWidth=2;" vertex="1" parent="WIyWlLk6GJQsqaUBKTNV-1">
          <mxGeometry x="474" y="401" width="125" height="54" as="geometry" />
        </mxCell>
        <mxCell id="axCRcWsU4pVJFEmlz38G-166" value="Job" style="whiteSpace=wrap;strokeWidth=2;" vertex="1" parent="WIyWlLk6GJQsqaUBKTNV-1">
          <mxGeometry x="1157" y="528" width="85" height="54" as="geometry" />
        </mxCell>
        <mxCell id="axCRcWsU4pVJFEmlz38G-167" value="CV" style="whiteSpace=wrap;strokeWidth=2;" vertex="1" parent="WIyWlLk6GJQsqaUBKTNV-1">
          <mxGeometry x="638" y="274" width="79" height="54" as="geometry" />
        </mxCell>
        <mxCell id="axCRcWsU4pVJFEmlz38G-168" value="JobApplication" style="whiteSpace=wrap;strokeWidth=2;" vertex="1" parent="WIyWlLk6GJQsqaUBKTNV-1">
          <mxGeometry x="281" y="655" width="166" height="54" as="geometry" />
        </mxCell>
        <mxCell id="axCRcWsU4pVJFEmlz38G-169" value="Admin" style="whiteSpace=wrap;strokeWidth=2;" vertex="1" parent="WIyWlLk6GJQsqaUBKTNV-1">
          <mxGeometry x="330" y="240" width="105" height="54" as="geometry" />
        </mxCell>
        <mxCell id="axCRcWsU4pVJFEmlz38G-170" value="Reports" style="whiteSpace=wrap;strokeWidth=2;" vertex="1" parent="WIyWlLk6GJQsqaUBKTNV-1">
          <mxGeometry x="130" y="401" width="114" height="54" as="geometry" />
        </mxCell>
        <mxCell id="axCRcWsU4pVJFEmlz38G-171" value="Freelancer" style="whiteSpace=wrap;strokeWidth=2;" vertex="1" parent="WIyWlLk6GJQsqaUBKTNV-1">
          <mxGeometry x="1120" y="230" width="127" height="54" as="geometry" />
        </mxCell>
        <mxCell id="axCRcWsU4pVJFEmlz38G-172" value="Employer" style="whiteSpace=wrap;strokeWidth=2;" vertex="1" parent="WIyWlLk6GJQsqaUBKTNV-1">
          <mxGeometry x="1129" y="401" width="137" height="54" as="geometry" />
        </mxCell>
        <mxCell id="axCRcWsU4pVJFEmlz38G-173" value="Login" style="startArrow=none;endArrow=block;exitX=0.5;exitY=1;entryX=0.5;entryY=0;rounded=0;edgeStyle=orthogonalEdgeStyle;" edge="1" parent="WIyWlLk6GJQsqaUBKTNV-1" source="axCRcWsU4pVJFEmlz38G-163" target="axCRcWsU4pVJFEmlz38G-164">
          <mxGeometry relative="1" as="geometry" />
        </mxCell>
        <mxCell id="axCRcWsU4pVJFEmlz38G-175" value="Authentication Success" style="startArrow=none;endArrow=block;exitX=0;exitY=0.2;rounded=0;edgeStyle=orthogonalEdgeStyle;" edge="1" parent="WIyWlLk6GJQsqaUBKTNV-1">
          <mxGeometry x="-0.1986" relative="1" as="geometry">
            <Array as="points">
              <mxPoint x="466" y="412" />
              <mxPoint x="466" y="200" />
            </Array>
            <mxPoint x="476" y="411.80000000000007" as="sourcePoint" />
            <mxPoint x="752" y="200" as="targetPoint" />
            <mxPoint as="offset" />
          </mxGeometry>
        </mxCell>
        <mxCell id="axCRcWsU4pVJFEmlz38G-176" value="Search for Job" style="startArrow=none;endArrow=block;rounded=0;edgeStyle=orthogonalEdgeStyle;exitX=1;exitY=0.25;exitDx=0;exitDy=0;" edge="1" parent="WIyWlLk6GJQsqaUBKTNV-1" source="axCRcWsU4pVJFEmlz38G-164">
          <mxGeometry relative="1" as="geometry">
            <Array as="points">
              <mxPoint x="940" y="160" />
              <mxPoint x="1353" y="160" />
              <mxPoint x="1353" y="570" />
            </Array>
            <mxPoint x="940" y="140" as="sourcePoint" />
            <mxPoint x="1243" y="570" as="targetPoint" />
          </mxGeometry>
        </mxCell>
        <mxCell id="axCRcWsU4pVJFEmlz38G-178" value="Return Job Listings" style="startArrow=none;endArrow=block;exitX=1;exitY=0.58;rounded=0;edgeStyle=orthogonalEdgeStyle;entryX=0.157;entryY=0.053;entryDx=0;entryDy=0;entryPerimeter=0;" edge="1" parent="WIyWlLk6GJQsqaUBKTNV-1">
          <mxGeometry relative="1" as="geometry">
            <Array as="points">
              <mxPoint x="1070" y="429" />
              <mxPoint x="1070" y="507" />
              <mxPoint x="1170" y="507" />
            </Array>
            <mxPoint x="599" y="429.32000000000005" as="sourcePoint" />
            <mxPoint x="1170.345" y="527.862" as="targetPoint" />
          </mxGeometry>
        </mxCell>
        <mxCell id="axCRcWsU4pVJFEmlz38G-179" value="" style="startArrow=none;endArrow=block;exitX=0;exitY=0.33;entryX=0.8;entryY=1;rounded=0;edgeStyle=orthogonalEdgeStyle;" edge="1" parent="WIyWlLk6GJQsqaUBKTNV-1">
          <mxGeometry relative="1" as="geometry">
            <Array as="points">
              <mxPoint x="1156.97" y="562" />
              <mxPoint x="858.97" y="562" />
            </Array>
            <mxPoint x="1156.97" y="547.82" as="sourcePoint" />
            <mxPoint x="859.3700000000001" y="203" as="targetPoint" />
          </mxGeometry>
        </mxCell>
        <mxCell id="axCRcWsU4pVJFEmlz38G-180" value="Upload CV" style="startArrow=none;endArrow=block;entryX=0.5;entryY=0;rounded=0;edgeStyle=orthogonalEdgeStyle;" edge="1" parent="WIyWlLk6GJQsqaUBKTNV-1" target="axCRcWsU4pVJFEmlz38G-167">
          <mxGeometry relative="1" as="geometry">
            <Array as="points">
              <mxPoint x="790" y="201" />
              <mxPoint x="790" y="238" />
              <mxPoint x="677" y="238" />
            </Array>
            <mxPoint x="790" y="201" as="sourcePoint" />
          </mxGeometry>
        </mxCell>
        <mxCell id="axCRcWsU4pVJFEmlz38G-181" value="Save CV Data" style="startArrow=none;endArrow=block;exitX=0.5;exitY=1;entryX=0.98;entryY=0;rounded=0;edgeStyle=orthogonalEdgeStyle;" edge="1" parent="WIyWlLk6GJQsqaUBKTNV-1" source="axCRcWsU4pVJFEmlz38G-167" target="axCRcWsU4pVJFEmlz38G-165">
          <mxGeometry relative="1" as="geometry" />
        </mxCell>
        <mxCell id="axCRcWsU4pVJFEmlz38G-182" value="Apply for Job" style="startArrow=none;endArrow=block;exitX=1;exitY=0.63;entryX=1;entryY=0.3;rounded=0;edgeStyle=orthogonalEdgeStyle;" edge="1" parent="WIyWlLk6GJQsqaUBKTNV-1" source="axCRcWsU4pVJFEmlz38G-164" target="axCRcWsU4pVJFEmlz38G-166">
          <mxGeometry x="-0.1851" relative="1" as="geometry">
            <Array as="points">
              <mxPoint x="1280" y="181" />
              <mxPoint x="1280" y="544" />
            </Array>
            <mxPoint as="offset" />
          </mxGeometry>
        </mxCell>
        <mxCell id="axCRcWsU4pVJFEmlz38G-183" value="Create Application Record" style="startArrow=none;endArrow=block;exitX=0.5;exitY=1.01;entryX=1;entryY=0.39;rounded=0;edgeStyle=orthogonalEdgeStyle;" edge="1" parent="WIyWlLk6GJQsqaUBKTNV-1" source="axCRcWsU4pVJFEmlz38G-166" target="axCRcWsU4pVJFEmlz38G-168">
          <mxGeometry relative="1" as="geometry" />
        </mxCell>
        <mxCell id="axCRcWsU4pVJFEmlz38G-184" value="Save Data" style="startArrow=none;endArrow=block;entryX=0;entryY=0.69;rounded=0;edgeStyle=orthogonalEdgeStyle;exitX=0.175;exitY=-0.093;exitDx=0;exitDy=0;exitPerimeter=0;" edge="1" parent="WIyWlLk6GJQsqaUBKTNV-1">
          <mxGeometry relative="1" as="geometry">
            <Array as="points">
              <mxPoint x="310" y="441" />
            </Array>
            <mxPoint x="310.04999999999995" y="652.9780000000001" as="sourcePoint" />
            <mxPoint x="474" y="441.26" as="targetPoint" />
          </mxGeometry>
        </mxCell>
        <mxCell id="axCRcWsU4pVJFEmlz38G-186" value="Notify Application Status" style="startArrow=none;endArrow=block;exitX=0;exitY=0.22;entryX=0;entryY=0.6;rounded=0;edgeStyle=orthogonalEdgeStyle;" edge="1" parent="WIyWlLk6GJQsqaUBKTNV-1" source="axCRcWsU4pVJFEmlz38G-168" target="axCRcWsU4pVJFEmlz38G-164">
          <mxGeometry x="-0.3423" relative="1" as="geometry">
            <mxPoint y="-1" as="offset" />
          </mxGeometry>
        </mxCell>
        <mxCell id="axCRcWsU4pVJFEmlz38G-187" value="Manage Jobs and Users" style="startArrow=none;endArrow=block;exitX=0.5;exitY=1;entryX=0.27;entryY=0;rounded=0;edgeStyle=orthogonalEdgeStyle;" edge="1" parent="WIyWlLk6GJQsqaUBKTNV-1" source="axCRcWsU4pVJFEmlz38G-169" target="axCRcWsU4pVJFEmlz38G-165">
          <mxGeometry relative="1" as="geometry" />
        </mxCell>
        <mxCell id="axCRcWsU4pVJFEmlz38G-188" value="Generate Reports" style="startArrow=none;endArrow=block;exitX=0;exitY=0.74;entryX=0.5;entryY=0;rounded=0;edgeStyle=orthogonalEdgeStyle;" edge="1" parent="WIyWlLk6GJQsqaUBKTNV-1" source="axCRcWsU4pVJFEmlz38G-169" target="axCRcWsU4pVJFEmlz38G-170">
          <mxGeometry relative="1" as="geometry" />
        </mxCell>
        <mxCell id="axCRcWsU4pVJFEmlz38G-190" value="Save Details" style="startArrow=none;endArrow=block;exitX=0;exitY=0.37;entryX=1;entryY=0.76;rounded=0;edgeStyle=orthogonalEdgeStyle;fontSize=7;" edge="1" parent="WIyWlLk6GJQsqaUBKTNV-1" source="axCRcWsU4pVJFEmlz38G-166" target="axCRcWsU4pVJFEmlz38G-165">
          <mxGeometry x="0.0754" y="-2" relative="1" as="geometry">
            <mxPoint as="offset" />
          </mxGeometry>
        </mxCell>
        <mxCell id="axCRcWsU4pVJFEmlz38G-193" value="can post" style="startArrow=none;endArrow=block;exitX=0.5;exitY=1;entryX=0.49;entryY=0.01;rounded=0;edgeStyle=orthogonalEdgeStyle;" edge="1" parent="WIyWlLk6GJQsqaUBKTNV-1" source="axCRcWsU4pVJFEmlz38G-172" target="axCRcWsU4pVJFEmlz38G-166">
          <mxGeometry relative="1" as="geometry" />
        </mxCell>
        <mxCell id="axCRcWsU4pVJFEmlz38G-194" value="Save Freelance Application" style="startArrow=none;endArrow=block;entryX=0.5;entryY=1;rounded=0;edgeStyle=orthogonalEdgeStyle;entryDx=0;entryDy=0;exitX=-0.029;exitY=0.856;exitDx=0;exitDy=0;exitPerimeter=0;" edge="1" parent="WIyWlLk6GJQsqaUBKTNV-1" source="axCRcWsU4pVJFEmlz38G-166" target="axCRcWsU4pVJFEmlz38G-165">
          <mxGeometry relative="1" as="geometry">
            <mxPoint x="1170" y="590" as="sourcePoint" />
          </mxGeometry>
        </mxCell>
        <mxCell id="axCRcWsU4pVJFEmlz38G-197" style="edgeStyle=orthogonalEdgeStyle;rounded=0;orthogonalLoop=1;jettySize=auto;html=1;entryX=0.399;entryY=0.012;entryDx=0;entryDy=0;entryPerimeter=0;endArrow=none;endFill=0;startArrow=block;startFill=1;" edge="1" parent="WIyWlLk6GJQsqaUBKTNV-1" source="axCRcWsU4pVJFEmlz38G-171" target="axCRcWsU4pVJFEmlz38G-172">
          <mxGeometry relative="1" as="geometry" />
        </mxCell>
        <mxCell id="axCRcWsU4pVJFEmlz38G-198" value="can hire" style="edgeLabel;html=1;align=center;verticalAlign=middle;resizable=0;points=[];" vertex="1" connectable="0" parent="axCRcWsU4pVJFEmlz38G-197">
          <mxGeometry x="0.0202" y="-4" relative="1" as="geometry">
            <mxPoint as="offset" />
          </mxGeometry>
        </mxCell>
        <mxCell id="axCRcWsU4pVJFEmlz38G-199" value="&lt;font style=&quot;font-size: 8px;&quot;&gt;Display Details&lt;/font&gt;" style="text;html=1;align=center;verticalAlign=middle;resizable=0;points=[];autosize=1;strokeColor=none;fillColor=none;" vertex="1" parent="WIyWlLk6GJQsqaUBKTNV-1">
          <mxGeometry x="790" y="518" width="80" height="30" as="geometry" />
        </mxCell>
        <mxCell id="axCRcWsU4pVJFEmlz38G-200" style="edgeStyle=orthogonalEdgeStyle;rounded=0;orthogonalLoop=1;jettySize=auto;html=1;entryX=0.364;entryY=0.084;entryDx=0;entryDy=0;entryPerimeter=0;" edge="1" parent="WIyWlLk6GJQsqaUBKTNV-1" source="axCRcWsU4pVJFEmlz38G-163" target="axCRcWsU4pVJFEmlz38G-169">
          <mxGeometry relative="1" as="geometry" />
        </mxCell>
        <mxCell id="axCRcWsU4pVJFEmlz38G-203" value="Login" style="edgeLabel;html=1;align=center;verticalAlign=middle;resizable=0;points=[];" vertex="1" connectable="0" parent="axCRcWsU4pVJFEmlz38G-200">
          <mxGeometry x="-0.3405" y="-1" relative="1" as="geometry">
            <mxPoint as="offset" />
          </mxGeometry>
        </mxCell>
      </root>
    </mxGraphModel>
  </diagram>
</mxfile>
